<?xml version="1.0" encoding="UTF-8"?>
<svg id="Camada_2" data-name="Camada 2" xmlns="http://www.w3.org/2000/svg" viewBox="0 0 943.37 1011.58">
  <defs>
    <style>
      .cls-1 {
        fill: #daff01;
      }
    </style>
  </defs>
  <g id="Camada_1-2" data-name="Camada 1">
    <path class="cls-1" d="M943.37,835.81l-22.46,124.52c-61.67-.52-123.55,5.77-183.14-13.18-144.1,119.2-375.05,62.54-476.86-84.42-56.18-81.09-75.73-179.99-81.58-277.24l.06-351.28-92.9,83.61L0,226.42,241.79,0l243.42,225.05-84.72,92.73-94.6-85.27-.08,346.16c5.57,92.33,25.07,198.86,102.75,257.87,56.99,43.29,135.93,61.4,204.96,38.58.45-9.63-7.62-9.85-12.86-15.33-117.87-123.39-122.31-376.49-87.14-533.29,21.64-96.47,70.79-196.85,186.38-188.05,55.95,4.26,99.25,46.48,125.24,93.52,75.88,137.34,68.45,416.71,10.59,560.3-5.13,12.74-13.48,26.49-18.59,39.58-.88,1.39,1.92,3.99,2.33,3.99h123.91ZM704.08,781.12c41.48-93.1,55.21-198.24,51.37-300.01-1.68-44.45-8.35-97.42-20.55-140.1-9.45-33.07-40.66-118.27-75.9-53.62-41.87,76.8-44.63,254.81-29.28,339.97,8.46,46.92,27.98,105.78,59.84,141.84,1.96,2.22,12.36,13.52,14.52,11.94Z"/>
  </g>
</svg>