<?xml version="1.0" encoding="UTF-8"?>
<svg id="Camada_2" data-name="Camada 2" xmlns="http://www.w3.org/2000/svg" viewBox="0 0 1809.2 759.09">
  <defs>
    <style>
      .cls-1 {
        fill: #020201;
      }

      .cls-2 {
        fill: #010100;
      }
    </style>
  </defs>
  <g id="Camada_1-2" data-name="Camada 1">
    <path class="cls-1" d="M661.9,586.44l-15.76,87.37c-43.27-.36-86.69,4.05-128.5-9.25-101.11,83.63-263.15,43.88-334.58-59.23-39.42-56.89-53.13-126.29-57.24-194.52l.04-246.47-65.18,58.67L0,158.86,169.65,0l170.79,157.9-59.44,65.06-66.38-59.83-.06,242.87c3.91,64.78,17.59,139.52,72.1,180.93,39.99,30.38,95.38,43.08,143.81,27.07.31-6.76-5.35-6.91-9.02-10.76-82.7-86.57-85.82-264.16-61.14-374.17,15.18-67.69,49.67-138.12,130.77-131.94,39.26,2.99,69.64,32.61,87.87,65.62,53.24,96.36,48.03,292.38,7.43,393.12-3.6,8.94-9.46,18.59-13.04,27.77-.62.97,1.35,2.8,1.63,2.8h86.94ZM494,548.06c29.1-65.32,38.74-139.09,36.04-210.5-1.18-31.18-5.86-68.35-14.42-98.3-6.63-23.2-28.53-82.98-53.25-37.62-29.37,53.89-31.32,178.78-20.54,238.53,5.93,32.92,19.63,74.22,41.99,99.52,1.38,1.56,8.67,9.49,10.19,8.38Z"/>
    <g>
      <path class="cls-2" d="M1521.71,536.07c-5.35,32.09-11.41,62.23,20.48,82.04,40.73,25.3,165.33,25.18,192.75-20.5,11.45-19.08,11.78-41.99-9.36-53.77-27.79-15.48-86.87-21.95-119.95-29.94-56.99-13.77-117.76-32.14-98.65-105.88,14.39-55.53,68.73-77.25,121.01-82.85,87.5-9.38,192.84,2.76,180.17,116.61-.2,1.76-1.33,9.15-2.84,9.15h-47.37c2.86-24.54,3.14-57.82-21.97-70.97-33.48-17.53-118.59-15.33-152.36,1.56-32.7,16.36-44.68,58.35-4.66,75.11,52.32,21.92,163.23,19.52,199.35,64.47,24.55,30.55,14.71,78.94-9.54,106.73-53.45,61.27-214.5,70.89-275.2,18.52-33.28-28.71-29.79-68.79-22-108.26l1.57-2.02h48.57Z"/>
      <path class="cls-2" d="M769.82,676.37l61.29-350.03c52.51,1.44,106.46-2.35,158.82-.18,103.62,4.29,162.91,53.2,150.3,162.39-7.3,63.17-38.22,115.21-91.56,149.47-84.14,54.04-183.94,34.9-278.84,38.35ZM827.38,632.01c72.29-1.25,156.01,9.88,214.67-41.36,37.94-33.13,53.5-91.02,48.99-140.17-4.93-53.73-51.16-76.07-99.93-78.75-38.57-2.12-79.47,1.26-118.25.57l-45.49,259.71Z"/>
      <path class="cls-2" d="M1454.55,676.37h-53.96l-31.91-103.2-171.12.3c-10.88,14.15-20.95,29.56-31.07,44.48-13.05,19.22-26.1,38.54-38.11,58.43h-56.36l236.12-349.38,1.88-.87c10.41,1.49,24.99-1.7,34.82.09,1.81.33,2.66.98,3.27,2.72l106.45,347.43ZM1355.02,528.88l-38.29-125.4-3.07-2.92-85.75,128.32h127.11Z"/>
      <polygon class="cls-2" points="791.41 326.22 730.26 676.37 681.09 676.37 742.25 326.22 791.41 326.22"/>
    </g>
    <g>
      <path class="cls-1" d="M664.32,745.92l10.15-27.6c1.79-1.82,6.77-1.92,8.44.02,3.28,3.8,3.46,32.79,5.39,39.58-1.73-.31-7.73.53-8.34-.06-1.23-1.19-1.79-25.12-3.06-25.13-2.05,3.03-6.92,24.21-7.91,25.07-.41.35-7.74.35-8.16,0-1-.86-5.86-22.04-7.91-25.07-1.27,0-2.13,24.26-3.01,25.18-.42.44-6.73-.26-8.39.01.89-5.12,3.37-39.32,4.93-40.64,1.26-1.06,7.73-.48,9.36,1.76,3.51,4.83,6.16,20.56,8.51,26.87Z"/>
      <path class="cls-1" d="M878.97,745.92l10.15-27.6c1.79-1.82,6.77-1.92,8.44.02,3.28,3.8,3.46,32.79,5.39,39.58-1.73-.31-7.73.53-8.34-.06-1.23-1.19-1.79-25.12-3.06-25.13-2.05,3.03-6.92,24.21-7.91,25.07-.41.35-7.74.35-8.16,0-1-.86-5.86-22.04-7.91-25.07-1.27,0-2.13,24.26-3.01,25.18-.42.44-6.73-.26-8.39.01.89-5.12,3.37-39.32,4.93-40.64,1.26-1.06,7.73-.48,9.36,1.76,3.51,4.83,6.16,20.56,8.51,26.87Z"/>
      <path class="cls-1" d="M1326.26,745.92l10.15-27.6c1.79-1.82,6.77-1.92,8.44.02,3.28,3.8,3.46,32.79,5.39,39.58-1.73-.31-7.73.53-8.34-.06-1.23-1.19-1.79-25.12-3.06-25.13-2.05,3.03-6.92,24.21-7.91,25.07-.41.35-7.74.35-8.16,0-1-.86-5.86-22.04-7.91-25.07-1.27,0-2.13,24.26-3.01,25.18-.42.44-6.73-.26-8.39.01.89-5.12,3.37-39.32,4.93-40.64,1.26-1.06,7.73-.48,9.36,1.76,3.51,4.83,6.16,20.56,8.51,26.87Z"/>
      <path class="cls-1" d="M1540.89,718.94c.73-2.37,6.05-2.47,7.88-.68l18.5,25.26v-24.58c0-2.45,8.39-2.45,8.39,0v38.97c-2.57-.23-6.13.74-8.39-.61-4.37-2.61-12.8-22.42-19.19-25.78v26.38h-7.2v-38.97Z"/>
      <path class="cls-1" d="M996.14,717.42c30.71-6.35,36.37,39.53,6.75,41.61-25.35,1.79-30.31-36.74-6.75-41.61ZM998.57,724.59c-13.25,2.51-13.53,24.58.88,26.16,21.58,2.37,18.94-29.92-.88-26.16Z"/>
      <path class="cls-1" d="M1778,717.42c30.71-6.35,36.37,39.53,6.75,41.61-25.35,1.79-30.31-36.74-6.75-41.61ZM1780.42,724.59c-13.25,2.51-13.53,24.58.88,26.16,21.58,2.37,18.94-29.92-.88-26.16Z"/>
      <path class="cls-2" d="M541.99,725.54v8.4s15.59,0,15.59,0c1.92,10.85-8.32,6.4-15.6,7.19v9.6h20.39v7.2h-28.78v-38.97c0-.13,1.67-1.8,1.8-1.8h25.18c2.45,0,2.45,8.39,0,8.39h-18.59Z"/>
      <path class="cls-2" d="M1438.96,725.54v8.4s15.59,0,15.59,0c1.92,10.85-8.32,6.4-15.6,7.19v9.6h20.39v7.2h-28.78v-38.97c0-.13,1.67-1.8,1.8-1.8h25.18c2.45,0,2.45,8.39,0,8.39h-18.59Z"/>
      <path class="cls-1" d="M1114,744.73c2.72.49,1.91-.15,2.67-1.53,2.74-4.99,6.19-21.88,8.69-24.87,1.7-2.03,5.39-1.03,7.82-1.18,2.25,2.26-12.51,34.11-13.79,39.58-1.42,1.67-6.74,1.99-7.93.45-1.61-2.08-5.33-13.38-6.77-16.94-1.26-3.12-8.81-21.78-7.5-23.08,2.45.15,6.08-.87,7.8,1.19,3.13,3.75,6.87,20.84,9,26.39Z"/>
      <polygon class="cls-2" points="1687.19 718.34 1687.2 724.35 1675.2 724.34 1675.2 757.92 1668.01 757.92 1668.01 724.34 1656.01 724.35 1656.01 718.34 1687.19 718.34"/>
      <rect class="cls-2" x="1213.52" y="718.34" width="7.2" height="39.57"/>
    </g>
  </g>
</svg>